<svg width="37" height="33" viewBox="0 0 37 33" fill="none" xmlns="http://www.w3.org/2000/svg">
<path d="M16.1737 3.49781L10.2234 6.99344" stroke="black" stroke-width="2.14745" stroke-miterlimit="10" stroke-linecap="round" stroke-linejoin="round"/>
<path d="M27.0859 6.34966L30.5651 12.3096" stroke="black" stroke-width="2.14745" stroke-miterlimit="10" stroke-linecap="round" stroke-linejoin="round"/>
<path d="M4.2598 8.5233C4.88938 6.11425 6.2296 6.25584 7.83129 6.67443L31.9999 12.9907C33.6016 13.4093 34.8397 13.9415 34.2101 16.3505C33.4784 19.1503 32.2403 18.618 30.6386 18.1994L6.47003 11.8832C4.86834 11.4646 3.52812 11.323 4.2598 8.5233Z" stroke="black" stroke-width="2.14745"/>
<path d="M6.13184 12.0024L5.70823 21.1288C5.46472 23.7639 5.98416 25.8751 9.70841 26.8484L20.165 29.5811C24.2148 30.6395 25.2766 29.025 26.3852 26.6994L30.8734 18.4684" stroke="black" stroke-width="2.14745" stroke-linecap="round"/>
</svg>
